<?xml version="1.0" encoding="utf-8"?>
<!-- Generator: Adobe Illustrator 19.1.0, SVG Export Plug-In . SVG Version: 6.00 Build 0)  -->
<svg version="1.1" id="Layer_1" xmlns="http://www.w3.org/2000/svg" xmlns:xlink="http://www.w3.org/1999/xlink" x="0px" y="0px"
	 viewBox="-1367 937 720 720" style="enable-background:new -1367 937 720 720;" xml:space="preserve">
<style type="text/css">
	.st0{fill:#FFFFFF;}
</style>
<g>
	<path class="st0" d="M-1009.3,957.6c1.6,4.2-6.6,0.9-3.7,5.6c1.7,6.4,3.4,12.6,5.9,18.7c2.8-6.9,4.8-14,7.5-20.9
		c-1.1-1.6-5.3,0.2-4.1-3h13.4c1.7,3.7-2.7,2-4.1,3c-4.8,9.2-7.6,19.2-11.7,28.9l-4.8,0.3c-2.7-9.8-6.6-19.2-9.7-28.9
		c-1.4-1.6-5.8,0.5-4.5-3.3C-1019.9,957.9-1014.5,958.3-1009.3,957.6z"/>
	<path class="st0" d="M-972.4,961.3c-1.1,0.8-2.7,0.3-4.1,0.5c-2,8.3-2.3,17.6-2.7,26.2c1.2,0.3,2.3,1.2,3.7,1.4v1.9l-14.5-0.8v-2.2
		c2,0,5.6,0.5,5-2.7l1.9-23.9c-1.2-1.2-5.8-0.6-3.7-3.4l14.5,0.8L-972.4,961.3L-972.4,961.3z"/>
	<path class="st0" d="M-938.7,965.1c-0.5,3-0.3,6.6-1.9,8.6c-2.5-0.3-1.1-4.2-2.7-5.9c-2.7-3.3-7.5-4.5-11.9-3.4
		c-5,3-6.6,9.2-6.9,15c0.3,3.6,0.8,6.9,3.4,9.4c2.7,2.2,6.2,3.7,10.4,3.1c2-0.3,4.2-4.4,5.6-1.9l-6.4,5.9c-8.1,0.8-15.1-1.7-18.7-9
		c-2-6.2-1.2-14,2.3-19.3C-960.4,958.2-945.9,960.7-938.7,965.1z"/>
	<path class="st0" d="M-1063.6,969.9l-1.9,1.2l-3.4-4.5c-3.7,0.2-9,1.1-6.4,6.4l1.1,5.1c5.5,2,3-4.8,6.9-4.5c0,0.5-0.2,0.9,0.3,1.2
		v-0.5h0.8v0.5h-0.5c-0.3,3,0.6,6.5,1.2,9.7c-3.9,1.2-2.7-6.9-7.5-3.4c-0.9,4.1,0.8,8,1.9,11.7l7.5-1.9c0.9-2.2,0.9-6.7,4.1-6.1
		l-0.8,9.4l-20.6,4.2c-2-3.1,2.5-2.2,3.4-3.7l-4.5-25.9c-1.4-0.9-5.1,0.8-4.5-2.2l19.8-4.2C-1065.6,964.6-1064.2,967.2-1063.6,969.9
		z"/>
	<g>
		<path class="st0" d="M-1035.5,976.3c1.9-1.6,3.9-2.8,4.4-5.1c0.8-3.4,0.8-7.3-1.9-9.8c-7.2-5.1-15.4,0.3-23.6-0.3v1.1
			c0.3,2.2,3.4,0.5,4.8,1.6l2.7,25c-0.6,1.9-2.7,1.2-4.1,1.9c0.2,0.9-0.3,2,0.3,2.7l15.4-1.9c0.3-3.3-3.9-1.9-5.6-3.3
			c0-3.1-0.2-6.1-1.2-8.7c0.6-0.8,1.4-1.1,2.3-1.1c7.3,5.3,10,15.3,20.1,13.6v-1.6C-1027.1,986-1030.9,982.2-1035.5,976.3z
			 M-1040.8,975.5h-3c-0.8-4.1-2-9.2-0.5-13.1c3-0.5,6.2,0.6,6.9,3.4C-1037.9,969.4-1036.3,974.7-1040.8,975.5z"/>
	</g>
	<path class="st0" d="M-912.8,979.2c-3.9,0.9-1.7-3.9-3.4-5.6c-2.3,0.2-4.1-1.6-6.4-1.4c-1.4,3-2.3,6.2-3,9.7
		c1.2,0.9,3.1,1.6,4.5,0.8c0.8-0.8,0.8-2.5,2.2-2.2h1.2c-0.3,3.3-2.3,6.7-2.7,10.5c-0.6,0.6-1.6,0.2-2.3,0.3
		c-0.2-2.2,1.1-6.1-2.5-5.6h-1.6c-0.6,3.7-5.3,10-0.3,11.7c4.1,1.2,6.9,0.6,8.9-3.1c0-0.6,1.1-0.2,1.6-0.3c1.4,3.1-2.5,6.1-3.7,8.6
		l-20.3-4.8c-0.5-3.7,5.5-0.2,5.6-4.1l6.4-23.2l-3.7-2.7l0.8-1.6l19.5,5.3L-912.8,979.2z"/>
	<path class="st0" d="M-1094.8,977.4c-0.5,0.5-1.4,0.5-2.2,0.5c-0.8-1.6-1.2-3.3-3-4.5c-3-1.2-6.6,0.3-7.5,3.4
		c0.8,12,20.4,3.3,19,17.5c0,3.4-2.3,6.4-5.1,8.3c-4.1,0.9-8.6,3-12.8,1.1c-0.9-2.5-1.2-5.1-2.7-7.5c0.9,0.2,1.6-0.3,2.3-0.6
		c0.5,2.3,3.1,4.5,5.1,5.6c2.2,1.2,4.1-0.6,6.1-1.2c2-1.2,0.6-3.9,1.1-5.9c-5.3-8-23.1-3.3-18.4-17.2c2.8-6.4,10.3-6.2,16.1-7.5
		L-1094.8,977.4z"/>
	<path class="st0" d="M-882.5,981.9c-1.1,2.7-2.2,5.3-3.3,8c-4.7,0.2-0.5-4.5-2.3-6.9c-0.8-2.2-3.1-2.5-5.1-2.5
		c-1.7,0.3-3.7,1.4-4.2,3.3c-0.9,8.7,13.1,12.9,6.7,22.5c-2.5,2.5-5.3,4.5-8.9,4.2c-4.5-0.6-8.4-3-11.7-6.4l2.3-7.5l2.7,0.3
		c-1.6,2.5-0.6,5.8,0.6,8c1.6,1.1,3.4,3,6.1,2.2c2.3-1.7,4.7-3.7,3.7-7.5c-3.3-5.6-10.3-10.4-7.5-17.9c1.2-2.2,3.6-3.6,5.6-4.5
		C-891.7,976.4-887.2,979.2-882.5,981.9z"/>
	<path class="st0" d="M-1137.1,984.2c0.3,1.4-2,1.9-3,3c3.3,9,7,18.1,11.2,27c-1.2,0.3-2.7,2.2-4.5,1.9c-7-4.7-15-9.7-22.8-13.9
		c1.1,5.9,5.6,11.2,7.8,17.2c2.5,2.7,6.1-4.1,6.1,1.6l-12.5,5.9c-1.9-2.2,1.9-3.3,2.7-4.8c-2.3-8.3-7.2-15.4-10.8-23.2
		c-1.7-0.9-5.1,2-5.6-1.1l9.4-4.8c7.6,4.5,14.3,8.9,22,13.4v-2.4c-2.2-4.8-4.5-9.8-6.7-14.7c-1.9-1.4-4.5,3-5.6-0.8
		c3.4-2.3,7.8-4.1,12-5.6L-1137.1,984.2z"/>
	<path class="st0" d="M-839.5,1003c-0.3,1.2-1.9,1.9-3,1.1c-0.6-0.8-1.7-0.3-2.7-0.5c-3.7,7.2-12.3,15.1-9.4,24.3
		c1.9,2.5,3.9,3.1,6.7,3.7c9.4-3.4,12.9-12.3,17.3-19.8c-0.5-1.9-4.1-2.3-1.9-4.5c3.4,2.5,8.1,3.9,10.5,7.5
		c-1.1,2.5-2.8-0.6-4.5-0.3c-5.8,6.9-10.3,19.2-20.6,20.3c-5.9,0-10.8-3.7-13.4-8.7c-2-9.7,5.8-17.3,10.1-25.4
		c-0.2-1.7-4.8-2.6-1.6-4.8L-839.5,1003z"/>
	<path class="st0" d="M-868.7,1002.5c0.3,1.7-0.3,4.5-2.7,4.8c-2.2,0.6-3.1-0.6-4.1-2.2c0-1.7-0.5-3.6,1.4-4.5
		C-872.1,999.8-869.4,1000.3-868.7,1002.5z"/>
	<g>
		<path class="st0" d="M-1159.1,1026.5c-1.2,0.9-2.7,1.2-4.2,1.1l-24.3-18.4l-3.3,1.9c0.9,10.1,3.7,20.4,5.6,30.7l-3.1,4.2
			c0.6,0.3,0.6,0.9,1.2,1.4l11.2-7.8l-0.8-1.9c-1.9-0.8-2.7,1.4-4.2,1.4c-1.9-1.9-0.9-4.8-2.2-7c2.7-1.9,5.3-4.1,8.3-5.3l5.6,4.8
			c-0.8,1.9-5,2.2-2.3,4.5c4.5-1.9,9.4-5,13.9-7.5C-1157.7,1027.8-1158.3,1026.8-1159.1,1026.5z M-1183.4,1027.6l-2.3-9
			c2.2,2.7,5.9,3.6,6.7,6.4C-1180.3,1025.7-1182.3,1026.5-1183.4,1027.6z"/>
	</g>
	<path class="st0" d="M-799.7,1029.8c-2,2.5-4.4,4.8-6.1,6.4c-2.8-2,1.6-5.3,0-8.3c-1.7-1.9-4.1-3.9-6.7-2.5
		c-8.7,7.5,7.8,17.2-2.7,25.4c-2.5,1.1-5.3,2.7-8.3,1.4c-3.9-1.6-8.6-5-10-9.7c-0.2-2.5,3.3-4.5,4.4-7.2c0.3,0.8,1.4,0.6,1.9,1.6
		c-1.7,2.2-2.2,5.5-1.4,8.3c1.9,2.5,5,4.5,7.8,2.7c2.7-1.9,3.1-5.6,2.3-8.7c-1.7-3.9-4.1-7.6-3.1-12.6c1.4-2.2,3.4-5.1,6.4-5.6
		C-807.7,1020.1-803.8,1025.7-799.7,1029.8z"/>
	<path class="st0" d="M-1210.8,1026.8l-3,3.4c5.9,7.2,10.4,12.3,18.4,19.5c2,0.5,4.8-4.5,5.6,0l-12.3,9.4c-3.3-2.5,1.2-3,1.4-5.3
		c-5-5.8-9.2-9.5-13.4-14.2c0.8,8,5.5,15.3,7.5,23.2c-1.6,2.5-3.6-0.8-5.3-1.2c-5.8-2.7-11.1-6.9-17.2-8.9v1.4
		c3.6,4.1,7.3,9.7,11.2,13.9c1.7,0.2,3.7-3.1,4.8-0.3l-9.4,8.6l-1.6-1.6l2.7-3.3c-4.5-7-10-14.5-15.8-21.1l-4.4,2.7l-1.2-1.4l9-8.3
		l18.7,9.7c-0.9-6.5-3.6-13.4-5.9-19.8c1.7-2.8,6.1-6.2,9.4-7.2L-1210.8,1026.8z"/>
	<path class="st0" d="M-738.7,1068.8c1.1,23.4-17.3,37.9-31.5,51.6l-144.2,121.3c-12.9,12-31.5,22-38.8,40.1
		c-9.7,23.9-13.3,50.4-17.3,76.7c-2.3,19-20.1,35.6-36.7,42.6c-12.6,4.5-28.2,2.3-42.3,3.4l-50.2,0.3c-4.2,0.9-8,3.3-10.1,6.7
		l-1.9,5c-5.3,0.8-3.6-3.9-4.4-7.2c0.2-11.1,2.7-22.6,10.8-29.2c4.4-4.4,10.4-5.5,16.5-6.4l73.3-1.1c4.1-0.2,7.3-2.7,10.1-4.8l3-5.6
		c5.8-36.5,9.2-74.2,27.3-105.3c16.8-19.7,38.2-33.2,56.9-50.5c43.4-37,88.4-74.4,131.5-111.8c12-11.5,25-26.7,28.1-44.9l1.4-5
		C-747.5,1048.2-739.4,1057.9-738.7,1068.8z"/>
	<g>
		<path class="st0" d="M-791.6,1075.9l12-28.9c-0.9-0.8-2.2-2.8-3.7-3c-9.2,4.8-18.4,9.8-28.1,13.7c-1.4-0.6-3.7-2.7-4.8-0.6
			c2.7,4.2,7.2,5.5,10.5,8.9l1.1-1.1c0.2-2-1.7-2.2-2.5-3.7l6.7-3.7l7,6.4l-3,6.4c-1.9,0.9-2.3-1.7-3.7-1.9l-1.9,1.9l11.2,10.8
			c0.5-0.3,0.9-1.1,1.6-1.1C-789.1,1077.8-790.5,1077-791.6,1075.9z M-796.4,1055.7l8-4.1l-3.4,8.1
			C-793.6,1058.8-794.9,1057.1-796.4,1055.7z"/>
	</g>
	<path class="st0" d="M-1245.9,1057.2l-1.9,3.7c7.3,7.8,18.4,13.9,15.3,25.4c-1.9,4.4-5.1,7-9.4,8.9c-10.6,2.3-17.6-9.8-24.3-14.2
		c-1.6-0.3-4.1,4.2-5.1,0.5c3.1-2.5,6.7-8.9,10-10.1c2,2.2-2.2,3.3-0.6,5.1c7,4.8,12.2,15.1,22.5,13.6c2.8-2.2,6.1-5.1,4.4-9
		c-2.8-6.2-10-12.6-15.6-16.8c-2.3-0.9-3.7,4.1-5.3,0.8c2.7-3.1,5.8-6.4,9-9L-1245.9,1057.2z"/>
	<path class="st0" d="M-1275.6,1093.4l20.6,14.7c0.9-0.6,2.7-1.6,3.7-3c0.3,0.6,1.4,0.6,1.9,1.4l-8.6,11.7c-0.8,0-1.4-0.2-1.9-0.8
		c5.1-5.9-5-8.1-7.8-11.2l-8,10.5c4.7,1.2,9,10.8,13.9,3.7l1.1,0.8c-2.3,4.1-5.5,8.4-8.3,12.8l-1.9-0.8l1.9-4.5l-22-14.7
		c-1.9,0.9-2,4.2-4.5,3.1v-1.9l7.5-10.9h2c0.8,1.4-1.2,2.5-1.1,4.1c2.5,2.2,5.1,4.8,8.6,6.4l7.5-10.4c-3.6-1.7-8.6-10.5-12.3-3.4
		l-1.6-1.1l9.4-12.3C-1272.1,1088.9-1277.3,1091.2-1275.6,1093.4z"/>
	<path class="st0" d="M-696.5,1109.9c2.3,22.8-15.8,33.5-29.9,47.6l-58.8,50.5l-104.3,88.7c-15,16.7-15.8,40.4-19.5,61.8
		c0.6,7,7.6,9.8,6.4,17.2l-14.7,26.2c0.8,10.3,13.6,4.4,17.6,10.9c0.2,3.7-2.3,8.4,0.8,11.5c1.9,3.6,10.3-1.2,5.9,4.5
		c-1.2,0.9-0.8,3.1-0.3,4.5c1.6,2.3,4.8,2.5,5.1,5.9c-1.6,4.4-1.6,10.3,1.1,14.2c18.1,19.8,49.3-4.8,68.2,13.9
		c4.8,4.2,4.7,11.9,3.4,17.9c-10,29.6-69.9,31.8-49.4,73.8c3.7,6.9,11.5,11.5,19.5,12c6.7,1.1,11.9-1.7,17.6-3.4
		c1.6,0,1.7,1.7,2.5,2.7v1.1c-17.3,12.3-39.5,30.4-62.4,17.3c-11.5-7.3-17.5-22.3-14.7-36.8c7-23.2,33.7-29.2,47.1-48.7
		c3.1-5.6,2.5-13.1-0.6-18.7c-4.4-7.6-14.3-9.7-22.9-11.2c-14.3-0.3-36.3,8.7-42.6-8.1c-1.9-6.4,4.7-17.8-5.6-19.2
		c-1.6-1.9-4.8-3.6-3.1-6.4c0.5-1.7,3.4-2,1.9-4.1c-2-0.6-4.7-0.2-6.2-1.9c-5.9-6.4,10.1-13.3-0.8-17.6c-5.5-0.8-12.9,3.3-16.5-3
		c-1.7-5.9,2.7-10.1,4.8-15c3.7-8.3,14.5-13.7,11.7-24.3l-5.3-9c1.6-21.4,5.1-41.8,10.5-61.8c7.2-22.1,28.5-34.5,44.9-49.8
		l87.7-74.1l62.1-54.6c10.8-10,20.3-21.4,20-36.3c3.1-1.1,5.5,2.8,8.1,4.1C-702.2,1098.3-697.7,1102.5-696.5,1109.9z"/>
	<g>
		<path class="st0" d="M-1279.6,1147.1c-0.5,2.7-3.6,4.1-6.1,4.4c-1.9-2.5-3-6.1-5.6-7.8c-2.5-0.8-6.1-2.8-8.6-0.3
			c0.3,2-0.5,3.7-0.8,5.6h1.2c0.6-2.5,4.5-2,6.7-1.6c1.2,1.6,4.5,2.3,3.7,4.5c-4.7,0.5-9.5,2-13.6,3v-3.7c-1.4-1.9-1.2-5.5-4.4-5.6
			c-2.3-1.1-4.7,0.2-6.4,1.6c-3.3,3-4.5,8.4-3.4,12.6c2.3,4.7,8,2.8,12,3.7c0.2,3.4,0.6,6.5,2.7,9c2.3,2.3,5.9,3.1,9.4,2.2
			c4.2-0.9,6.1-5.6,7.8-8.9c3-2.8-3.1-9.8,3.7-9c3.3-1.6,2-6.2,3-9.4L-1279.6,1147.1z M-1305.1,1156c-3,0.3-5.5,1.2-8-0.8
			c-0.5-1.1-0.8-3.1,0.5-4.1c2.5-2.5,6.9-0.5,7.5,2.7V1156z M-1289,1165c-2,2.7-5.6,3.6-9,2.7c-2-0.8-3.9-3.1-4.1-5.3
			c4.2-3.1,9.7-3.3,15-4.1C-1286.6,1160.5-1287.9,1163-1289,1165z"/>
	</g>
	<path class="st0" d="M-1327.2,1185.9c-0.2,2.7-0.3,6.6,3.4,6.1l21.7,6.2c1.4-1.2,1.6-5,4.1-3.7c-0.8,4.7-2.7,9.8-4.1,14.7
		c-3.7,0.3-0.8-3.7-1.9-5.3l-10.9-3.3c-1.7,3.9-3.3,7.8-3.7,12.3c3.7,1.1,7.5,2.2,11.2,3.4l2.7-4.5l1.6,0.8l-3.4,14.5h-2.2
		c-0.9-2,1.7-4.2-0.8-5.6l-24.8-5.6c-0.5,1.6-1.6,5.1-3.3,4.2c0.5-5,1.7-10.4,3.3-15.4c0.6,0.2,1.2,0.5,1.9,0.5
		c0.5,1.6-0.8,2.5-0.3,4.1c3,2.2,6.7,2,10.1,3c2.3-3.7,2.5-8.4,3.7-12.6c-3.3-1.2-6.7-1.9-10.1-2.7c-1.6,0.9-1.2,5.3-4.1,3.3
		l4.1-14.2h1.8V1185.9z"/>
	<path class="st0" d="M-720,1220.4c-11.5,18.4-30.9,32.3-47.9,46.8l-67.4,56.5c-12.5,11.2-15.8,30.6-10.1,45.7
		c0.6,7.6-5.3,12.5-7.2,19.2c0.2,2,0.6,4.5,2.7,5.1c2.8,1.1,7.2-0.3,8.6,3.4c0.5,3.9-1.4,8.1,3,9.7c1.7,0.9,4.4-2,4.5,1.1
		c-1.1,1.7-1.9,3.4-1.4,5.6c2,3.9,7,1.6,8.9,5c0.9,4.5,0.8,10.5,6.1,12.3c17.5,3,30.6-8.9,46.3-12.3c25-7.8,49.1,2,71.6,8.6
		c11.1,2,23.2,1.4,34.3,0l0.8,0.8c-14.2,17.3-31.7,34.2-56.5,32.4c-26-0.9-42.9-25.3-70.8-20.6c-18.9,3.7-37.7,15.1-58,7.5
		c-5.1-4.2-7.3-11.7-5.1-19c-0.8-4.5-12.2-5.5-5.3-11.2c-1.4-2.2-5.8,0-6.7-3.4c-1.6-3.6,2.8-8.9-1.9-11.2
		c-4.2-0.6-9.7,1.6-12.8-1.9c-1.7-2.2-1.4-5.1-0.8-7.8c3.1-7.2,11.1-12.8,9.4-21.4c-5.5-5.3-3.6-13.7-3-20.9
		c3.1-16.5,4.4-34,19.8-44.9l82.8-70c17.5-16.7,39-27.4,51.6-49.4C-718,1195-714.9,1209.3-720,1220.4z"/>
	<path class="st0" d="M-1330.9,1225.2c0.6,0.6,0.3,1.6,0.3,2.3c-2,1.6-6.6-0.6-6.7,3.3c-1.1,3.3,0.5,5.6,3.7,5.6l20.6,3.4
		c0.6-1.2,1.9-2.8,1.9-4.5h2.7l-3,15.8c-4.1,0.5,0.3-5.8-3.7-6.1c-8-0.6-15.3-3-23.2-3.7c-2.2,1.7-0.5,5-1.6,7.2
		c1.7,1.4,5.1,1.4,5,4.1c-3.1,0.6-6.1-0.9-9-1.4c1.9-7.8,2.3-17.8,4.5-26.2C-1336.9,1225.5-1333.7,1225.1-1330.9,1225.2z"/>
	<path class="st0" d="M-1312.5,1258.6l-1.6,21.7c-3.7,1.2-2-3.3-3-4.8c-8.9,0.2-16.8-1.9-25.9-1.1c-1.9,0.9-0.2,5.1-3.3,4.1
		l0.6-14.7c0.6-0.6,1.6-0.2,2.3-0.3c1.1,1.6-1.1,5.8,2.7,4.8l23.1,1.6c1.2-2.5,0.8-5.5,1.2-8.3c-1.4-2.5-7.6-1.7-5-5.6
		C-1318.2,1256.2-1315.7,1258.3-1312.5,1258.6z"/>
	<g>
		<path class="st0" d="M-1314.4,1304.6h-2.3v3c-1.9,1.9-5.5-0.2-7.8-1.1c-0.6-3-0.6-6.4,0-9.4c2.5-0.3,5-2.3,7.5-1.9l0.3,3.7h2.3
			l0.3-15.3c-3.9-1.9-1.4,2.8-3.7,4.1l-28.9,11.5c0,1.7-0.2,3.3,0.8,4.5c9.8,3.1,19.8,6.1,29.2,10.1c1.6,1.1-0.3,6.2,3.4,3.7
			L-1314.4,1304.6z M-1337.3,1302.4c2.8-1.4,5.6-2.5,8.6-3.1c0.8,1.6,0.3,3.6,0.5,5.3C-1331.1,1304.4-1334.5,1303.7-1337.3,1302.4z"
			/>
	</g>
	<path class="st0" d="M-1313,1322.5c0.9,7,1.2,14.2,2.7,21.1c-2.7,0.8-2.7-2.8-4.1-4.2l-25.9,3c-0.9,1.2,0.3,3.6-1.1,4.2h-1.1
		l-2.3-20.3l7.5-1.9c0.5,0.6,0.2,1.4,0.8,1.9c-1.9,1.4-3.3,1.4-4.8,3.4c0.6,1.9,0.3,4.2,0.8,6.4c3.3-0.8,11.1,1.9,10.5-3.7
		c0.3-3-5-0.3-4.2-3.7l11.2-1.2l0.5,1.6c-2.5,1.1-6.2,1.7-4.2,5.6c3.9,1.4,7-1.1,10.9-0.8c0.9-2.7,0-5.5-0.8-7.8
		c-1.1-1.4-3.3-1.9-5.1-2.3v-2.2L-1313,1322.5z"/>
	<path class="st0" d="M-1306.6,1362.9c-3.1,1.4-2.3-2-3.4-3.3c-4.1-0.3-8.7,0.6-11.9,3c0.6,4.1,0.9,8.1,3,11.5
		c3.9-0.6,8.3-1.2,11.2-3.7c0.5-1.4-1.2-4.8,1.9-4.1l3.7,14.7l-1.6,0.6l-2.7-4.4l-24.6,6.2c-2,1.4,1.1,6.2-2.7,5.6l-3.3-14.5
		c0.6-0.3,0.9-1.1,1.9-0.8c1.2,1.2,0.6,6.1,4.1,3.7l7.8-2.2c0.3-4.2-1.7-8.3-2.5-12.5c-3.6-0.8-6.7,1.7-10.1,1.9l-0.8,5h-1.6
		l-3.3-14.3c0.3-0.3,1.1-0.9,1.9-0.6c1.1,1.9,1.9,5.8,5.1,3.7l22.5-5.3c1.4-1.4-1.4-6.1,2.7-4.8L-1306.6,1362.9z"/>
	<path class="st0" d="M-1288.2,1417.2c-2.7,3-2.7-2-4.2-2.5c-8.3,2.7-16.2,6.2-24.3,9.4l-0.3,5.1c-0.6-0.2-0.8,0.5-1.1,0.8
		c-3.4-6.1-5.1-12.9-7.5-19.5c2.8,0,5.5-5.3,7.5-2.2c-3,2.7-4.4,6.4-1.6,9.7c3.3-0.5,7.2-1.7,10.4-3.3c0.2-1.6-0.5-3.6-1.9-5
		c-0.9-0.9-4.2,2.2-3.7-1.1c2.7-2,6.4-3.4,9.8-4.5c2,3.1-5.1,4.5-0.8,8.3c3.4,0.2,7-2,10.4-3.3c0.3-1.4-0.6-4.4,0.8-5.3h0.8
		L-1288.2,1417.2z"/>
	<path class="st0" d="M-973.5,1465.6c23.6,10,48.2,19.8,69.3,33.7c5.3,4.2,10,10.6,9,18.4c-7.3,29.8-48.8,32.9-42.7,68
		c1.9,13.1,10.5,24.5,23.2,28.1c5.8,1.7,13.6,1.7,19.5,0c0.8,2.3,4.8,4.5,0.3,6.1c-17,10.9-38.7,23.1-59.6,12.6
		c-10.1-4.7-16.1-15.6-18.7-26.2c-4.2-31.8,25.6-41.8,40.6-63.2c2.2-4.2,3.3-9.2,2.2-14.2c-3-5.9-7.2-9.7-12.8-13.1
		c-55.8-31.4-116.5-52.4-178.9-68.6c-10.3-1.1-26.4-7-33.2,5v0.6c-5.6,1.1-3.4-5.6-3.4-8.6c1.7-10.1,7.6-18.4,17.2-22.5
		c16.2-4.8,33.4,0.8,49.1,3.7C-1052.1,1436.9-1012,1449.5-973.5,1465.6z"/>
	<g>
		<path class="st0" d="M-1282.6,1428.9c-3.4-3.6-7.8-4.2-12.8-3.7c-7.8,2.8-16.4,7.6-16.8,17.2c0.6,5,2.8,9.5,6.7,12.8
			c3.6,0.8,7.5,3,10.9,1.9c7.2-1.9,13.6-6.6,16.4-13.6C-1276.5,1437.8-1279,1432.8-1282.6,1428.9z M-1286,1444.7
			c-5.5,3.4-12.8,10.8-20.3,5.1c-2-1.6-1.6-4.8-1.1-7c3.1-7,10.8-10.6,17.6-12.5c3,0.3,6.1,0.8,7.5,3.7
			C-1281.8,1438.3-1282.7,1442-1286,1444.7z"/>
	</g>
	<path class="st0" d="M-1252.6,1476.8c0.6,0.6,1.7,1.7,1.9,3c-2.3,2.8-3-2.3-5.6-2.2c-6.4,4.1-13.9,9.5-20.3,14.2
		c0.9,2.3,2.3,4.4,4.1,6.4c1.7-1.1,3.9-0.9,5.6-1.9l0.8,1.9l-7.5,4.8l-15.4-21.4c0.8-2.5,4.1-4.1,6.4-6.4c0.6,0.3,2.2,1.4,1.1,2.3
		l-3,4.1c1.2,1.4,1.9,4.1,3.7,5.3l3-1.1l17.9-12.8c0.3-1.9-3-4.7-0.8-6.4C-1257,1469.3-1255.6,1473.2-1252.6,1476.8z"/>
	<path class="st0" d="M-1240,1491.8c-2,8.9-4.7,17.6-6.7,26.5h1.1l13.6-12.6c0.8-2.3-4.2-3.7-1.2-5.6c4.2,2.2,7,6.4,10.1,9.7
		c-1.4,2.3-3.9-0.3-5.1-1.1c-6.7,4.5-13.9,12.2-20,17.6c0.3,1.7,4.2,3.7,0.8,5.1c-14.8-7.8-0.5-21.2-0.8-31.8
		c0.2-0.3-0.2-0.5-0.3-0.6l-13.9,11.9c-0.3,2,3.6,3.4,1.1,5c-3.7-1.2-5.8-6.4-8.9-9c3-3.9,4.7,4.8,7.5-0.8l19.5-16.8
		C-1241.3,1488.6-1241.6,1491-1240,1491.8z"/>
	<path class="st0" d="M-1202.6,1528.1c-1.4,3-3.3-0.9-5.1-0.8l-18.1,19.5c0.3,1.7,3.4,3.1,1.2,4.8l-15.8-13.9l4.8-6.4
		c1.7,0.5,1.7,2.2,1.1,3.4c-0.9,0.8-0.6,2.2-0.8,3.4l4.5,3.7c3.1-2,5.6-4.5,7.5-7.5c-1.4-2.3-3.7-3.1-5.9-1.2l-0.5,0.5l-1.1-1.1
		l7.2-8.3c0.9-0.9,0.6,1.2,1.9,1.1l-2.3,3.7l3.1,2.7l7.5-7.5c-1.4-1.9-3.7-4.5-6.1-5.6c-2.2,0.2-4.2,2.2-6.4,1.4c0-3,5-3.7,7.2-6.2
		L-1202.6,1528.1z"/>
	<path class="st0" d="M-1187.9,1538.9c0,0.8-0.8,1.1-1.1,1.6c-6.1-5.6-6.6,4.7-9.8,7.2c-0.8,3.1-4.5,5.5-4.5,8.6
		c7-3.9,13.4-8.9,20-13.9l1.9,0.8c-1.2,8-5.1,15.3-5,23.6c5.1-4.2,7.5-10.4,11.7-15c-0.5-1.4-2.5-2.2-2.7-3.7l1.1-1.1
		c3.7,1.9,7.3,4.8,10.9,6.4c0.3,1.7-1.9,2.2-3,1.4c-0.9-0.3-1.6-0.9-2.7-0.8c-5.1,7.2-12.3,13.9-15.8,21.4c1.2,0.8,2.7,2.2,3.4,3.4
		l-1.2,1.1l-10-6.4c1.4-7,3-13.9,4.4-20.9c-5,2.8-12.2,7.2-17.2,11.2c-3.6,0-7.3-3.4-9.7-5.6c-0.5-0.5,0-1.4,0.6-1.9
		c1.6,0.2,2.5,2,4.2,1.9c4.7-7.2,9-14.7,13.4-22.5c0-2.3-4.7-3.3-1.4-5.6L-1187.9,1538.9z"/>
	<path class="st0" d="M-1144.1,1564.4c0.5,3.1-3.7,1.9-5,1.1c-0.2-0.5-0.6-0.5-1.1-0.5l-12,22.1c1.7,1.9,4.4,3,6.9,3.7
		c1.1-1.7,3.4-4.5,5.1-3.4l0.5,0.5l-4.5,7.8l-24-12.3l3.4-8.3c0.5,0,0.8,0.6,1.4,0.5l0.5,6.7c2.3,0.3,3,2.5,5.6,2.2l12-21.7
		c-0.8-1.9-5.8-3-3.4-5.3C-1153.9,1559.9-1149.1,1562.1-1144.1,1564.4z"/>
	<g>
		<path class="st0" d="M-1110.4,1578.2l-14.3-5.1c-2.7,3,2.8,2.5,3.1,5.1c-1.4,3-1.7,6.9-4.2,8.7c-4.2-4.7-3.9-12.2-7-17.3
			c-2.7-0.9-4.4-6.2-6.9-3.3c2.5,6.1,6.1,12.2,5.6,19l-3,0.3c-2.5,0.9-3.3,3.3-4.8,5c-0.9,3.1-1.4,6.4,0.3,9.4
			c6.2,4.1,13.3,5.6,20,8.6c0-0.5-0.3-1.2,0.3-1.6l-3.7-3.3l9-23.7C-1114.1,1578.3-1109.9,1583.2-1110.4,1578.2z M-1131,1601.4
			c-2.2-0.8-5.5-1.1-5.6-4.1c0.2-3.7,1.9-7.6,5.1-9.4c2.2-0.6,3.3,0.9,4.8,1.4C-1126.9,1593.1-1130.1,1597.2-1131,1601.4z"/>
	</g>
	<path class="st0" d="M-1024.3,1594.4c-0.3,3.6-7.2,1.6-5.3,7c0,7.6-1.2,14.8-1.9,22.1c1.4,0.9,4.5,0.8,4.1,3
		c-6.4-0.5-14.2-0.5-20.9-1.6v-7.8c4.1-1.2,1.2,5.1,5.3,5.3c2-0.6,5.3,1.9,5.9-1.2c-1.1-3.4,2.2-6.9-0.3-9.4c-3.1-1.7-3.9,1.6-5,3.4
		c-3-2.2-0.5-7.8-0.6-11.5c3.9-0.5,0.9,7,6.7,4.8l1.4-10.5c-2.5-0.9-5.1-1.4-8.1-1.2c-1.9,1.7-2.5,6.2-5.3,5c0.5-2.7,1.4-6.2,2.7-9
		L-1024.3,1594.4z"/>
	<g>
		<path class="st0" d="M-1087.6,1585.3l-0.8,1.9l4.2,2.2c-1.4,1.6-2.2,3.4-3.4,5c-3.1,2-7.2-0.6-10.5-1.6v-7.2
			c1.6-1.9,6.1,2.5,4.8-2.2c-5.5-0.5-9.8-3.3-15-4.5c-3,3.3,2.2,2.3,3,4.5c1.4,10.1,1.7,20.7,2.7,31l4.5,1.1
			c6.2-9,11.5-16.5,18.7-25l4.8-0.8v-1.6L-1087.6,1585.3z M-1096.7,1606.7l-0.6-9.4l5.6,1.4L-1096.7,1606.7z"/>
	</g>
	<g>
		<path class="st0" d="M-992.5,1623.1l-1.2-26.2c1.7-0.6,4.8-0.3,5-2.5l-0.5-0.8c-7.8,0.3-15.8,0.3-22.8,2.2
			c-4.4,1.7-6.2,6.1-8,10.1c-0.6,6.1-0.9,13.1,3.4,17.6c8.1,5.1,19,2.7,28.4,2.2C-987,1622.2-991.6,1625.1-992.5,1623.1z
			 M-999.4,1623.1c-3.4,0.6-7.6,0.8-10.5-1.4c-4.2-4.8-4.5-12.8-2.6-18.7c1.4-5,7.2-5.8,12-5.3
			C-999.5,1605.9-999,1614.5-999.4,1623.1z"/>
	</g>
	<g>
		<path class="st0" d="M-1052.9,1592l-15.3-2.7l-0.5,1.9c8-0.9,3.4,8,3.1,11.2h-8.3c-3.1,1.2-6.2,3.3-7.2,6.9
			c-0.3,3.9,0,9.2,4.2,11.2c5.8,2,13.1,1.9,19,3c0.5-2.7-3-1.9-4.1-3.4l4.1-25.7C-1056.1,1593.6-1052.7,1594.5-1052.9,1592z
			 M-1068.1,1618.7c-2.3,1.4-4.2-1.1-5.6-1.9c-0.6-3.3-0.8-7.2,1.4-9.8c1.6-1.4,4.1-1.9,6.1-1.1L-1068.1,1618.7z"/>
	</g>
</g>
</svg>
