<?xml version="1.0" encoding="utf-8"?>
<!-- Generator: Adobe Illustrator 19.1.0, SVG Export Plug-In . SVG Version: 6.00 Build 0)  -->
<svg version="1.1" id="usagov" xmlns="http://www.w3.org/2000/svg" xmlns:xlink="http://www.w3.org/1999/xlink" x="0px" y="0px"
	 viewBox="-1688 1284.3 78.4 24.7" style="enable-background:new -1688 1284.3 78.4 24.7;" xml:space="preserve">
<style type="text/css">
	.st0{fill:#FFFFFF;}
</style>
<g>
	<g id="star">
		<polygon class="st0" points="-1662.9,1286.6 -1660.4,1286.5 -1663.2,1288.2 -1663.7,1290.7 -1664.9,1289.2 -1667.7,1290.7 
			-1665.7,1288.3 -1666.9,1286.8 -1664.5,1286.7 -1662.6,1284.3 		"/>
		<path class="st0" d="M-1667.9,1287.5c-10.1,1.3-17.5,4.7-20.1,7.7c2.6-2.4,11.2-5.3,20.8-6.8"/>
	</g>
	<g id="gov">
		<path class="st0" d="M-1632.4,1300.7c0,1.6,0.2,2.4,0.8,3.1c0.4,0.4,0.9,0.6,1.5,0.6c1.5,0,2.4-1.2,2.4-3.2c0-2.3-1-3.8-2.5-3.8
			C-1631.7,1297.4-1632.4,1298.6-1632.4,1300.7 M-1627.7,1303.5c-0.7,1.3-1.5,2.1-2.9,2.1c-2,0-3.4-1.9-3.4-4.7
			c0-2.9,1.4-4.8,3.4-4.8c1.8,0,2.4,1.3,2.9,2.3v-2.1h1.5v9c0,2.4-1.5,3.7-4,3.7c-2.1,0-3.5-1-3.5-2.3c0-0.2,0-0.5,0.1-0.8l1.3,0.6
			c-0.1,1,1,1.3,2.1,1.3c1.5,0,2.4-0.7,2.4-1.9L-1627.7,1303.5"/>
		<path class="st0" d="M-1623.6,1301c0,2.1,1,3.4,2.6,3.4c1.5,0,2.5-1.3,2.5-3.5c0-2.4-1.2-3.5-2.7-3.5
			C-1622.6,1297.4-1623.6,1298.7-1623.6,1301 M-1616.7,1300.8c0,2.9-1.7,4.9-4.3,4.9c-2.4,0-4.1-2-4.1-4.8c0-2.7,1.7-4.7,4.2-4.7
			C-1618.6,1296.1-1616.7,1298-1616.7,1300.8"/>
		<polygon class="st0" points="-1616.9,1296.4 -1615.5,1296.4 -1613.2,1303.2 -1611.1,1296.4 -1609.6,1296.4 -1612.4,1305.4 
			-1614.1,1305.4 		"/>
		<path class="st0" d="M-1636.9,1305.6c-0.8,0-1.5-0.7-1.5-1.5c0-0.9,0.7-1.5,1.5-1.5c0.8,0,1.5,0.7,1.5,1.5
			C-1635.4,1304.9-1636.1,1305.6-1636.9,1305.6"/>
	</g>
	<g id="usa">
		<path class="st0" d="M-1663.7,1292.1c-0.3,0-0.6,0-0.8,0.1c-0.6,0.4-0.5,1.6-0.5,2.1v5.4c0,1.6-0.1,3.5-1.4,4.7
			c-1.2,1.1-2.6,1.4-4.2,1.4c-1,0-1.8-0.1-2.8-0.4c-2.6-0.9-3.3-2.4-3.3-4.9v-8.4h-1.7v-0.4h6.6v0.4h-1.7v8c0,1.2-0.1,2.6,0.7,3.6
			c0.7,1,1.8,1.3,3,1.3c1.5,0,3-0.6,3.7-1.8c0.6-1.1,0.5-2.4,0.5-3.5v-5.4c0-1.3-0.1-2.1-1.6-2.1h-0.4v-0.4h4L-1663.7,1292.1
			L-1663.7,1292.1L-1663.7,1292.1z"/>
		<path class="st0" d="M-1647.7,1295.7l-1.8,4.9h3.6L-1647.7,1295.7z M-1645.9,1305.4v-0.4h1.6l-1.5-4h-3.9l-0.8,2.3
			c-0.1,0.4-0.2,0.7-0.2,1c0,0.7,1,0.6,1.5,0.6v0.4h-4v-0.4h0.5c1,0,1.4-0.7,1.7-1.5l4.5-12.2h0.3l5.4,13.8h1.3v0.4H-1645.9
			L-1645.9,1305.4L-1645.9,1305.4L-1645.9,1305.4L-1645.9,1305.4z"/>
		<path class="st0" d="M-1657.7,1305.7c-1.3,0-2.2-0.4-3.4-0.7c-0.1-0.1-0.2-0.1-0.4-0.1c-0.2-0.1-0.7-0.4-0.9-0.4
			c-0.5,0-0.4,0.5-0.7,0.7v0.1h-0.4l-0.1-5.2h0.4c0.4,1.4,0.8,2.4,1.8,3.5c1,1,2.1,1.7,3.6,1.7c1.6,0,3.1-1,3.1-2.6
			c0-1.8-1.5-2.3-3.2-2.6l-1.3-0.3c-1.1-0.2-2.2-0.4-3.1-1.2c-0.4-0.3-0.6-0.6-0.8-1c-0.4-0.7-0.5-1.4-0.5-2.1
			c0-2.6,2.1-4.1,4.6-4.1c1.2,0,2.1,0.4,3.2,0.8c0.3,0.1,0.7,0.3,1,0.3c0.5,0,0.5-0.4,0.5-0.8h0.4v4.4h-0.4c-0.4-2.2-2-4.3-4.6-4.3
			c-1.5,0-3,0.9-3,2.4c0,1.6,1.7,2,3.1,2.3c0.7,0.1,1.5,0.2,2.2,0.4c2.4,0.5,3.7,2,3.7,4.3
			C-1652.7,1303.8-1654.9,1305.7-1657.7,1305.7"/>
	</g>
</g>
</svg>
